<?xml version="1.0" encoding="UTF-8"?>
<svg width="84px" height="84px" viewBox="0 0 84 84" version="1.1" xmlns="http://www.w3.org/2000/svg" xmlns:xlink="http://www.w3.org/1999/xlink">
    <!-- Generator: Sketch 52.2 (67145) - http://www.bohemiancoding.com/sketch -->
    <title>打印机@2x</title>
    <desc>Created with Sketch.</desc>
    <g id="首页" stroke="none" stroke-width="1" fill="none" fill-rule="evenodd">
        <g id="5-1首页-店长-方案4" transform="translate(-247.000000, -1222.000000)">
            <g id="打印机" transform="translate(247.000000, 1222.000000)">
                <rect id="Rectangle-8" fill="#FFB602" x="0" y="0" width="84" height="84" rx="42"></rect>
                <g id="分组" transform="translate(20.000000, 20.000000)" fill-rule="nonzero">
                    <path d="M37.4814815,30 L37.4814815,27.25 C37.4814815,26.1454305 36.586051,25.25 35.4814815,25.25 L8.51851852,25.25 C7.41394902,25.25 6.51851852,26.1454305 6.51851852,27.25 L6.51851852,30 L2,30 C0.8954305,30 1.3527075e-16,29.1045695 0,28 L0,13 C-1.3527075e-16,11.8954305 0.8954305,11 2,11 L42,11 C43.1045695,11 44,11.8954305 44,13 L44,28 C44,29.1045695 43.1045695,30 42,30 L37.4814815,30 Z M9.34265734,14.4545455 C8.38871096,14.4545455 7.61538462,15.2278718 7.61538462,16.1818182 C7.61538462,17.1357646 8.38871096,17.9090909 9.34265734,17.9090909 L15.1958042,17.9090909 C16.1497506,17.9090909 16.9230769,17.1357646 16.9230769,16.1818182 C16.9230769,15.2278718 16.1497506,14.4545455 15.1958042,14.4545455 L9.34265734,14.4545455 Z" id="合并形状" fill="#FFFFFF"></path>
                    <path d="M10,27 L34,27 L34,40 C34,41.1045695 33.1045695,42 32,42 L12,42 C10.8954305,42 10,41.1045695 10,40 L10,27 Z M14.7410714,30.5 C14.0161977,30.5 13.4285714,31.0876263 13.4285714,31.8125 C13.4285714,32.5373737 14.0161977,33.125 14.7410714,33.125 L29.2589286,33.125 C29.9838023,33.125 30.5714286,32.5373737 30.5714286,31.8125 C30.5714286,31.0876263 29.9838023,30.5 29.2589286,30.5 L14.7410714,30.5 Z M14.7410714,35.75 C14.0161977,35.75 13.4285714,36.3376263 13.4285714,37.0625 C13.4285714,37.7873737 14.0161977,38.375 14.7410714,38.375 L24.1160714,38.375 C24.8409452,38.375 25.4285714,37.7873737 25.4285714,37.0625 C25.4285714,36.3376263 24.8409452,35.75 24.1160714,35.75 L14.7410714,35.75 Z" id="合并形状" fill="#FFFFFF"></path>
                    <path d="M10,2 L35,2 C36.1045695,2 37,2.8954305 37,4 L37,9 L8,9 L8,4 C8,2.8954305 8.8954305,2 10,2 Z" id="矩形-copy-10" fill="#FFFFFF"></path>
                    <rect id="矩形" fill-opacity="0" fill="#D8D8D8" x="0" y="0" width="44" height="44"></rect>
                </g>
            </g>
        </g>
    </g>
</svg>