<?xml version="1.0" encoding="UTF-8"?>
<svg width="84px" height="84px" viewBox="0 0 84 84" version="1.1" xmlns="http://www.w3.org/2000/svg" xmlns:xlink="http://www.w3.org/1999/xlink">
    <!-- Generator: Sketch 52.2 (67145) - http://www.bohemiancoding.com/sketch -->
    <title>核销记录@2x</title>
    <desc>Created with Sketch.</desc>
    <g id="首页" stroke="none" stroke-width="1" fill="none" fill-rule="evenodd">
        <g id="5-1首页-店长-方案4" transform="translate(-419.000000, -1222.000000)">
            <g id="核销记录" transform="translate(419.000000, 1222.000000)">
                <rect id="Rectangle-8" fill="#118DFF" x="0" y="0" width="84" height="84" rx="42"></rect>
                <g id="分组-4" transform="translate(22.000000, 20.000000)" fill="#FFFFFF">
                    <path d="M10,7 L34,7 C37.3137085,7 40,9.6862915 40,13 L40,40 C40,41.6568542 38.6568542,43 37,43 L10,43 C8.34314575,43 7,41.6568542 7,40 L7,10 C7,8.34314575 8.34314575,7 10,7 Z M14,16 C12.8954305,16 12,16.8954305 12,18 C12,19.1045695 12.8954305,20 14,20 L33.1428571,20 C34.2474266,20 35.1428571,19.1045695 35.1428571,18 C35.1428571,16.8954305 34.2474266,16 33.1428571,16 L14,16 Z M14,27 C12.8954305,27 12,27.8954305 12,29 C12,30.1045695 12.8954305,31 14,31 L26.8571429,31 C27.9617124,31 28.8571429,30.1045695 28.8571429,29 C28.8571429,27.8954305 27.9617124,27 26.8571429,27 L14,27 Z" id="合并形状"></path>
                    <path d="M38.7229179,4.40560169 C37.5051717,3.52145888 36.2851968,3 35.1904762,3 C26.4603175,3 17.7301587,3 9,3 C5.6862915,3 3,5.6862915 3,9 L3,40.1973068 C1.20659589,39.1598786 -1.50438151e-15,37.2208471 -1.77635684e-15,35 L8.8817842e-16,6 C4.82366169e-16,2.6862915 2.6862915,6.08718376e-16 6,0 C14.5714286,0 23.1428571,0 31.7142857,0 C33.0851794,1.4140086e-13 35.3073071,1.291935 38.3806688,3.87580501 C38.4987438,4.05520066 38.6128268,4.23179956 38.7229179,4.40560169 Z" id="合并形状"></path>
                </g>
            </g>
        </g>
    </g>
</svg>