<?xml version="1.0" encoding="UTF-8"?>
<svg width="84px" height="84px" viewBox="0 0 84 84" version="1.1" xmlns="http://www.w3.org/2000/svg" xmlns:xlink="http://www.w3.org/1999/xlink">
    <!-- Generator: Sketch 52.2 (67145) - http://www.bohemiancoding.com/sketch -->
    <title>icon_fqzx@2x</title>
    <desc>Created with Sketch.</desc>
    <g id="首页" stroke="none" stroke-width="1" fill="none" fill-rule="evenodd">
        <g id="5-1首页-店长-方案4" transform="translate(-592.000000, -1018.000000)">
            <g id="功能图标" transform="translate(30.000000, 565.000000)">
                <g id="2" transform="translate(0.000000, 216.000000)">
                    <g id="icon_fqzx" transform="translate(562.000000, 237.000000)">
                        <rect id="Rectangle-8-Copy-3" fill="#118DFF" x="0" y="0" width="84" height="84" rx="42"></rect>
                        <path d="M62.2020404,53.3614191 L60.5397394,53.3614191 C60.5529585,53.2682927 60.5661777,53.1751663 60.5661777,53.0820399 L60.5661777,29.3614191 C60.5661777,28.0576497 59.5152574,27 58.2197835,27 L25.7932767,27 C24.4978027,27 23.4468825,28.0576497 23.4468825,29.3614191 L23.4468825,53.075388 C23.4468825,53.1685144 23.4667112,53.2616408 23.4733207,53.3547672 L21.8110197,53.3547672 C20.8063665,53.3547672 20,54.172949 20,55.1773836 C20,56.1884701 20.812976,57 21.8110197,57 L62.1888213,57 C63.1934746,57 63.999841,56.1818182 63.999841,55.1773836 C64.0130602,54.1796009 63.2000841,53.3614191 62.2020404,53.3614191 Z M39.4486299,32.7738359 L44.5710398,32.7738359 L44.5710398,48.2394678 L39.4486299,48.2394678 L39.4486299,32.7738359 Z M37.234427,48.2394678 L32.1120171,48.2394678 L32.1120171,38.6807095 L37.234427,38.6807095 L37.234427,48.2394678 Z M45.2386055,55.8957871 L38.7810643,55.8957871 L38.7810643,54.9778271 L45.2386055,54.9778271 L45.2386055,55.8957871 Z M51.9076526,48.2394678 L46.7852428,48.2394678 L46.7852428,37.0044346 L51.9076526,37.0044346 L51.9076526,48.2394678 Z" id="形状" fill="#FFFFFF" fill-rule="nonzero"></path>
                    </g>
                </g>
            </g>
        </g>
    </g>
</svg>