<?xml version="1.0" encoding="UTF-8"?>
<svg width="90px" height="90px" viewBox="0 0 90 90" version="1.1" xmlns="http://www.w3.org/2000/svg" xmlns:xlink="http://www.w3.org/1999/xlink">
    <!-- Generator: Sketch 52.4 (67378) - http://www.bohemiancoding.com/sketch -->
    <title>充值@2x</title>
    <desc>Created with Sketch.</desc>
    <g id="首页" stroke="none" stroke-width="1" fill="none" fill-rule="evenodd">
        <g id="19首页-门店基金池-详情" transform="translate(-330.000000, -148.000000)" fill-rule="nonzero">
            <g id="金额" transform="translate(0.000000, 128.000000)">
                <g id="充值" transform="translate(330.000000, 20.000000)">
                    <circle id="椭圆形" fill="#FF9A28" cx="45" cy="45" r="45"></circle>
                    <path d="M45,21 C31.7710313,21 21,31.7647171 21,45.0008672 C21,58.2370174 31.7692031,69 45,69 C58.234125,69 69,58.2370174 69,45.0008672 C69,31.7647171 58.235625,21 45,21 Z M56.3108906,35.3200799 C56.9553375,35.3200799 57.3479766,35.679229 57.4924125,36.3942125 C57.4202203,37.0387295 57.0627647,37.39788 56.4183187,37.4683966 L43.6364906,37.4683966 C42.2032594,39.4018118 40.2698203,41.3721845 37.8363656,43.3761726 L37.6214695,43.5910764 C37.6214695,43.6632229 37.7288934,43.6984081 37.9436934,43.6984081 C42.8124591,43.6984081 47.5385372,43.5205139 52.1218341,43.1613653 C51.1182966,41.8019084 50.1885403,40.6908135 49.329195,39.8315309 C48.8995472,39.3313519 48.8995472,38.8295416 49.329195,38.3277313 C49.9014497,37.8275991 50.4385247,37.8275991 50.9403169,38.3277313 C51.94227,39.3313519 53.8755638,41.7297604 56.7404888,45.5244757 C57.0978966,46.1689927 57.0257048,46.7429509 56.5255927,47.2431768 C56.0238005,47.6022776 55.5219614,47.4948498 55.0218473,46.9208452 C54.7348552,46.5634245 54.4126786,46.1689946 54.0551255,45.7393791 C53.8403255,45.5244752 53.6959894,45.346581 53.6254777,45.2023362 C52.7662777,45.2744827 51.6551714,45.3466775 50.2957636,45.4171918 C49.6513167,45.4893866 49.1494777,45.5245718 48.7920183,45.5245718 L48.7920183,54.2251205 C48.8625783,55.0843984 49.4365636,55.5493449 50.5107042,55.6215397 L53.5181433,55.6215397 C54.8775042,55.8363953 55.5219511,54.6917452 55.451437,52.1843296 C55.5219492,51.4692959 55.9164131,51.0749598 56.6329589,51.002765 C57.2774058,51.0749598 57.634912,51.469438 57.7070527,52.1843296 C57.9219005,56.3365734 56.5960448,58.1995001 53.7328917,57.7698752 L49.9735308,57.7698752 C47.7531464,57.6976804 46.5716245,56.695691 46.4290167,54.7622806 L46.4290167,45.6318256 C45.0679308,45.776167 43.5641386,45.8466812 41.9177855,45.8466812 C41.8455933,51.8619454 39.1250995,55.7288039 33.7546448,57.4474441 C33.0380058,57.7327184 32.573123,57.5901532 32.358323,57.0178286 C32.1434269,56.3011168 32.321363,55.7641208 32.8953464,55.4066016 C37.1917777,54.1176098 39.4104558,50.9321181 39.5547839,45.8467562 C38.7659527,45.8467562 37.5139214,45.8467562 35.795423,45.8467562 C34.8640308,45.8467562 34.2547683,45.5966672 33.9694073,45.0948587 C33.7546073,44.5225318 34.0046393,43.9502096 34.7212777,43.3762513 C37.012223,41.5871789 39.088223,39.6167546 40.9511058,37.4684754 L33.5398402,37.4684754 C32.8953464,37.4684754 32.5362089,37.1110064 32.4657464,36.3942912 C32.5362103,35.7498211 32.8953464,35.3923488 33.5398402,35.3201587 L43.2067777,35.3201587 C43.1345855,35.1774974 42.9918816,34.8905432 42.7771298,34.4608808 L42.4549059,33.8163637 C42.0957698,33.2440368 42.2031459,32.7422312 42.7771298,32.3126156 C43.3494361,32.0272931 43.8512752,32.1699066 44.2808752,32.7422312 C44.5661873,33.1718945 45.0327455,34.031223 45.6772439,35.3201634 L56.3108377,35.3200674 L56.3108906,35.3200799 Z" id="形状" fill="#FFFFFF"></path>
                </g>
            </g>
        </g>
    </g>
</svg>