<?xml version="1.0" encoding="UTF-8"?>
<svg width="36px" height="36px" viewBox="0 0 36 36" version="1.1" xmlns="http://www.w3.org/2000/svg" xmlns:xlink="http://www.w3.org/1999/xlink">
    <!-- Generator: Sketch 52.4 (67378) - http://www.bohemiancoding.com/sketch -->
    <title>日历icon@2x</title>
    <desc>Created with Sketch.</desc>
    <g id="首页" stroke="none" stroke-width="1" fill="none" fill-rule="evenodd">
        <g id="14首页-我的奖金-账单明细" transform="translate(-650.000000, -273.000000)" fill="#1A1A1A" fill-rule="nonzero">
            <g id="栏目-本月" transform="translate(32.000000, 236.000000)">
                <path d="M646,39 L650,39 C652.209139,39 654,40.790861 654,43 L654,69 C654,71.209139 652.209139,73 650,73 L622,73 C619.790861,73 618,71.209139 618,69 L618,43 C618,40.790861 619.790861,39 622,39 L626,39 L626,43 L624,43 C622.895431,43 622,43.8954305 622,45 L622,67 C622,68.1045695 622.895431,69 624,69 L648,69 C649.104569,69 650,68.1045695 650,67 L650,45 C650,43.8954305 649.104569,43 648,43 L646,43 L646,39 Z M638,39 L638,43 L634,43 L634,39 L638,39 Z M630,37 C631.104569,37 632,37.8954305 632,39 L632,43 C632,44.1045695 631.104569,45 630,45 C628.895431,45 628,44.1045695 628,43 L628,39 C628,37.8954305 628.895431,37 630,37 Z M642,37 C643.104569,37 644,37.8954305 644,39 L644,43 C644,44.1045695 643.104569,45 642,45 C640.895431,45 640,44.1045695 640,43 L640,39 C640,37.8954305 640.895431,37 642,37 Z M628,50 L644,50 C645.104569,50 646,50.8954305 646,52 C646,53.1045695 645.104569,54 644,54 L628,54 C626.895431,54 626,53.1045695 626,52 C626,50.8954305 626.895431,50 628,50 Z M628,60 L644,60 C645.104569,60 646,60.8954305 646,62 C646,63.1045695 645.104569,64 644,64 L628,64 C626.895431,64 626,63.1045695 626,62 C626,60.8954305 626.895431,60 628,60 Z" id="日历icon"></path>
            </g>
        </g>
    </g>
</svg>