<?xml version="1.0" encoding="UTF-8"?>
<svg width="84px" height="84px" viewBox="0 0 84 84" version="1.1" xmlns="http://www.w3.org/2000/svg" xmlns:xlink="http://www.w3.org/1999/xlink">
    <!-- Generator: Sketch 52.2 (67145) - http://www.bohemiancoding.com/sketch -->
    <title>icon_yhqlb@2x</title>
    <desc>Created with Sketch.</desc>
    <g id="首页" stroke="none" stroke-width="1" fill="none" fill-rule="evenodd">
        <g id="5-1首页-店长-方案4" transform="translate(-75.000000, -1222.000000)">
            <g id="功能图标" transform="translate(30.000000, 565.000000)">
                <g id="2" transform="translate(0.000000, 216.000000)">
                    <g id="icon_yhqlb" transform="translate(45.000000, 441.000000)">
                        <rect id="Rectangle-8-Copy" fill="#F35744" x="0" y="0" width="84" height="84" rx="42"></rect>
                        <path d="M64,48.7101213 L64,53 C64,57.418278 60.418278,61 56,61 L28,61 C23.581722,61 20,57.418278 20,53 L20,48.7101213 C22.8914889,47.8495721 25,45.1710206 25,42 C25,38.8289794 22.8914889,36.1504279 20,35.2898787 L20,31 C20,26.581722 23.581722,23 28,23 L56,23 C60.418278,23 64,26.581722 64,31 L64,35.2898787 C61.1085111,36.1504279 59,38.8289794 59,42 C59,45.1710206 61.1085111,47.8495721 64,48.7101213 Z M47.0406667,36.7213333 C48.0873333,35.6806667 49.2206667,34.1186667 49.2206667,32.47 C49.2206667,31.516 48.9586667,30.7353333 48.3486667,30.128 C47.2153333,29 45.21,29 42.9433333,29 L41.2873333,29 C39.1073333,29 37.364,29 36.2306667,30.0413333 C35.6206667,30.648 35.3586667,31.4293333 35.3586667,32.47 C35.3586667,34.2053333 36.492,35.6806667 37.4513333,36.7213333 C33.6153333,38.7166667 31,42.708 31,46.7853333 C31,54.3333333 38.672,54.3333333 42.3333333,54.3333333 C45.9946667,54.3333333 53.6666667,54.3333333 53.6666667,46.7853333 C53.6666667,42.6213333 50.964,38.7166667 47.0406667,36.7213333 Z M45.1986667,43.9933333 C45.722,43.9933333 46.072,44.3393333 46.072,44.858 C46.072,45.3773333 45.722,45.7233333 45.1986667,45.7233333 L43.452,45.7233333 L43.452,46.5886667 L45.1986667,46.5886667 C45.722,46.5886667 46.072,46.9346667 46.072,47.4533333 C46.072,47.9726667 45.722,48.3186667 45.1986667,48.3186667 L43.452,48.3186667 L43.452,50.1353333 C43.452,50.6546667 43.1033333,51.0006667 42.5793333,51.0006667 C42.0553333,51.0006667 41.706,50.654 41.706,50.1353333 L41.706,48.3186667 L39.96,48.3186667 C39.4366667,48.3186667 39.0866667,47.9726667 39.0866667,47.4533333 C39.0866667,46.9346667 39.4366667,46.5886667 39.96,46.5886667 L41.7066667,46.5886667 L41.7066667,45.7233333 L39.96,45.7233333 C39.4366667,45.7233333 39.0866667,45.3766667 39.0866667,44.858 C39.0866667,44.3393333 39.4366667,43.9933333 39.96,43.9933333 L41.7066667,43.9933333 L41.7066667,43.4733333 L39.262,41.138 C38.9126667,40.792 38.9126667,40.2726667 39.262,39.9266667 C39.6113333,39.5806667 40.1353333,39.5806667 40.484,39.9266667 L42.6666667,42.0033333 L44.8493333,39.9266667 C45.1986667,39.5806667 45.7226667,39.5806667 46.0713333,39.9266667 C46.4206667,40.2733333 46.4206667,40.792 46.0713333,41.138 L43.452,43.6466667 L43.452,43.9933333 L45.1986667,43.9933333 Z" id="合并形状" fill="#FFFFFF"></path>
                    </g>
                </g>
            </g>
        </g>
    </g>
</svg>